{
  "accessors": [
    {
      "bufferView": 2,
      "componentType": 5126,
      "count": 3652,
      "max": [
        33.512603759765625,
        16.749767303466797,
        644.942626953125
      ],
      "min": [
        -426.528564453125,
        -16.848859786987305,
        1.9046939611434937
      ],
      "type": "VEC3"
    },
    {
      "bufferView": 2,
      "byteOffset": 43824,
      "componentType": 5126,
      "count": 3652,
      "max": [
        1,
        1,
        1
      ],
      "min": [
        -1,
        -1,
        -1
      ],
      "type": "VEC3"
    },
    {
      "bufferView": 3,
      "componentType": 5126,
      "count": 3652,
      "max": [
        1,
        1,
        1,
        1
      ],
      "min": [
        -0.99999779462814331,
        -1,
        -0.99994176626205444,
        1
      ],
      "type": "VEC4"
    },
    {
      "bufferView": 1,
      "componentType": 5126,
      "count": 3652,
      "max": [
        0.99833101034164429,
        0.99732702970504761
      ],
      "min": [
        0.0059239999391138554,
        0.010267999954521656
      ],
      "type": "VEC2"
    },
    {
      "bufferView": 0,
      "componentType": 5125,
      "count": 15762,
      "max": [
        3651
      ],
      "min": [
        0
      ],
      "type": "SCALAR"
    },
    {
      "bufferView": 2,
      "byteOffset": 87648,
      "componentType": 5126,
      "count": 636,
      "max": [
        32.7572021484375,
        18.950458526611328,
        621.86553955078125
      ],
      "min": [
        -401.58975219726562,
        -19.049549102783203,
        -0.91036999225616455
      ],
      "type": "VEC3"
    },
    {
      "bufferView": 2,
      "byteOffset": 95280,
      "componentType": 5126,
      "count": 636,
      "max": [
        1,
        1,
        0.42262893915176392
      ],
      "min": [
        -1,
        -1,
        0
      ],
      "type": "VEC3"
    },
    {
      "bufferView": 3,
      "byteOffset": 58432,
      "componentType": 5126,
      "count": 636,
      "max": [
        1,
        4.1564092612134118e-07,
        1,
        1
      ],
      "min": [
        -1,
        -0.21930637955665588,
        -1,
        1
      ],
      "type": "VEC4"
    },
    {
      "bufferView": 1,
      "byteOffset": 29216,
      "componentType": 5126,
      "count": 636,
      "max": [
        0.83012300729751587,
        0.99420100450515747
      ],
      "min": [
        0.095965996384620667,
        0.023447999730706215
      ],
      "type": "VEC2"
    },
    {
      "bufferView": 0,
      "byteOffset": 63048,
      "componentType": 5125,
      "count": 2316,
      "max": [
        635
      ],
      "min": [
        0
      ],
      "type": "SCALAR"
    },
    {
      "bufferView": 2,
      "byteOffset": 102912,
      "componentType": 5126,
      "count": 3297,
      "max": [
        33.512603759765625,
        12.066989898681641,
        644.942626953125
      ],
      "min": [
        -426.528564453125,
        -12.567399978637695,
        1.8087459802627563
      ],
      "type": "VEC3"
    },
    {
      "bufferView": 2,
      "byteOffset": 142476,
      "componentType": 5126,
      "count": 3297,
      "max": [
        1,
        1,
        1
      ],
      "min": [
        -1,
        -1,
        -1
      ],
      "type": "VEC3"
    },
    {
      "bufferView": 3,
      "byteOffset": 68608,
      "componentType": 5126,
      "count": 3297,
      "max": [
        1,
        1,
        0.98480802774429321,
        1
      ],
      "min": [
        -1,
        -1,
        -1,
        1
      ],
      "type": "VEC4"
    },
    {
      "bufferView": 1,
      "byteOffset": 34304,
      "componentType": 5126,
      "count": 3297,
      "max": [
        0.99981600046157837,
        0.99922001361846924
      ],
      "min": [
        0.0069039999507367611,
        0.010267999954521656
      ],
      "type": "VEC2"
    },
    {
      "bufferView": 0,
      "byteOffset": 72312,
      "componentType": 5125,
      "count": 13962,
      "max": [
        3296
      ],
      "min": [
        0
      ],
      "type": "SCALAR"
    },
    {
      "bufferView": 2,
      "byteOffset": 182040,
      "componentType": 5126,
      "count": 1265,
      "max": [
        32.7572021484375,
        18.950458526611328,
        643.9326171875
      ],
      "min": [
        -425.51861572265625,
        -19.049549102783203,
        1.7609859704971313
      ],
      "type": "VEC3"
    },
    {
      "bufferView": 2,
      "byteOffset": 197220,
      "componentType": 5126,
      "count": 1265,
      "max": [
        1,
        0.98140275478363037,
        1
      ],
      "min": [
        -1,
        -0.98140275478363037,
        -1
      ],
      "type": "VEC3"
    },
    {
      "bufferView": 3,
      "byteOffset": 121360,
      "componentType": 5126,
      "count": 1265,
      "max": [
        1,
        1,
        0.79000526666641235,
        1
      ],
      "min": [
        -1,
        -0.99998205900192261,
        -1,
        1
      ],
      "type": "VEC4"
    },
    {
      "bufferView": 1,
      "byteOffset": 60680,
      "componentType": 5126,
      "count": 1265,
      "max": [
        0.96240001916885376,
        0.99830901622772217
      ],
      "min": [
        0.0043730000033974648,
        0.022763000801205635
      ],
      "type": "VEC2"
    },
    {
      "bufferView": 0,
      "byteOffset": 128160,
      "componentType": 5125,
      "count": 5112,
      "max": [
        1264
      ],
      "min": [
        0
      ],
      "type": "SCALAR"
    }
  ],
  "asset": {
    "extras": {
      "author": "MJ lee (https://sketchfab.com/factorydottcat)",
      "license": "CC-BY-NC-ND-4.0 (http://creativecommons.org/licenses/by-nc-nd/4.0/)",
      "source": "https://sketchfab.com/models/e7d7e838f51e4e46bc85393da2e459c4",
      "title": "china road sign 2"
    },
    "generator": "Sketchfab-3.18.2",
    "version": "2.0"
  },
  "bufferViews": [
    {
      "buffer": 0,
      "byteLength": 148608,
      "byteOffset": 0,
      "name": "floatBufferViews",
      "target": 34963
    },
    {
      "buffer": 0,
      "byteLength": 70800,
      "byteOffset": 148608,
      "byteStride": 8,
      "name": "floatBufferViews",
      "target": 34962
    },
    {
      "buffer": 0,
      "byteLength": 212400,
      "byteOffset": 219408,
      "byteStride": 12,
      "name": "floatBufferViews",
      "target": 34962
    },
    {
      "buffer": 0,
      "byteLength": 141600,
      "byteOffset": 431808,
      "byteStride": 16,
      "name": "floatBufferViews",
      "target": 34962
    }
  ],
  "buffers": [
    {
      "byteLength": 573408,
      "uri": "scene.bin"
    }
  ],
  "images": [
    {
      "uri": "textures/02___Default_baseColor.jpg"
    }
  ],
  "materials": [
    {
      "doubleSided": true,
      "name": "02___Default",
      "pbrMetallicRoughness": {
        "baseColorFactor": [
          1,
          1,
          1,
          1
        ],
        "baseColorTexture": {
          "index": 0,
          "texCoord": 0
        },
        "metallicFactor": 0,
        "roughnessFactor": 0.59999999999999998
      }
    }
  ],
  "meshes": [
    {
      "primitives": [
        {
          "attributes": {
            "NORMAL": 1,
            "POSITION": 0,
            "TANGENT": 2,
            "TEXCOORD_0": 3
          },
          "indices": 4,
          "material": 0,
          "mode": 4
        }
      ]
    },
    {
      "primitives": [
        {
          "attributes": {
            "NORMAL": 6,
            "POSITION": 5,
            "TANGENT": 7,
            "TEXCOORD_0": 8
          },
          "indices": 9,
          "material": 0,
          "mode": 4
        }
      ]
    },
    {
      "primitives": [
        {
          "attributes": {
            "NORMAL": 11,
            "POSITION": 10,
            "TANGENT": 12,
            "TEXCOORD_0": 13
          },
          "indices": 14,
          "material": 0,
          "mode": 4
        }
      ]
    },
    {
      "primitives": [
        {
          "attributes": {
            "NORMAL": 16,
            "POSITION": 15,
            "TANGENT": 17,
            "TEXCOORD_0": 18
          },
          "indices": 19,
          "material": 0,
          "mode": 4
        }
      ]
    }
  ],
  "nodes": [
    {
      "children": [
        1
      ],
      "name": "RootNode (gltf orientation matrix)",
      "rotation": [
        -0.70710678118654746,
        -0,
        -0,
        0.70710678118654757
      ]
    },
    {
      "children": [
        2
      ],
      "name": "RootNode (model correction matrix)"
    },
    {
      "children": [
        3,
        4,
        5,
        6
      ],
      "name": "TSJI_road_sign_005.obj.cleaner"
    },
    {
      "mesh": 0,
      "name": ""
    },
    {
      "mesh": 1,
      "name": ""
    },
    {
      "mesh": 2,
      "name": ""
    },
    {
      "mesh": 3,
      "name": ""
    }
  ],
  "samplers": [
    {
      "magFilter": 9729,
      "minFilter": 9987,
      "wrapS": 10497,
      "wrapT": 10497
    }
  ],
  "scene": 0,
  "scenes": [
    {
      "name": "OSG_Scene",
      "nodes": [
        0
      ]
    }
  ],
  "textures": [
    {
      "sampler": 0,
      "source": 0
    }
  ]
}

